<svg xmlns="http://www.w3.org/2000/svg" xmlns:xlink="http://www.w3.org/1999/xlink">
	<symbol id="twitter" viewBox="0 0 20 17">
		<path d="M17.9441 4.0482C17.9568 4.22586 17.9568 4.40355 17.9568 4.58121C17.9568 9.99996 13.8325 16.2436 6.29441 16.2436C3.97207 16.2436 1.81473 15.571 0 14.4036C0.329961 14.4416 0.647187 14.4543 0.989844 14.4543C2.90605 14.4543 4.67004 13.8071 6.07867 12.703C4.27664 12.665 2.76648 11.4848 2.24617 9.86039C2.5 9.89844 2.75379 9.92383 3.02031 9.92383C3.38832 9.92383 3.75637 9.87305 4.09898 9.78426C2.22082 9.40351 0.812148 7.75379 0.812148 5.76141V5.71066C1.35781 6.01523 1.99238 6.20559 2.66492 6.23094C1.56086 5.49488 0.837539 4.23855 0.837539 2.81723C0.837539 2.05582 1.04055 1.35785 1.3959 0.748711C3.41367 3.23602 6.44668 4.86035 9.84766 5.03805C9.78422 4.73348 9.74613 4.41625 9.74613 4.09898C9.74613 1.84008 11.5736 0 13.8451 0C15.0253 0 16.0913 0.494922 16.84 1.29441C17.7664 1.11676 18.6547 0.774102 19.4416 0.30457C19.137 1.25637 18.4898 2.05586 17.6395 2.56344C18.4644 2.47465 19.2639 2.24617 19.9999 1.92895C19.4416 2.74109 18.7436 3.46441 17.9441 4.0482Z" />
	</symbol>
	<symbol id="facebook" viewBox="0 0 320 512">
		<path d="M80 299.3V512H196V299.3h86.5l18-97.8H196V166.9c0-51.7 20.3-71.5 72.7-71.5c16.3 0 29.4 .4 37 1.2V7.9C291.4 4 256.4 0 236.2 0C129.3 0 80 50.5 80 159.4v42.1H14v97.8H80z" />
	</symbol>
	<symbol id="dribble" viewBox="0 0 20 20">
		<path d="M9.6875 0C4.34578 0 0 4.34578 0 9.6875C0 15.0292 4.34578 19.375 9.6875 19.375C15.0292 19.375 19.375 15.0292 19.375 9.6875C19.375 4.34578 15.0292 0 9.6875 0ZM16.0926 4.46742C17.245 5.87547 17.9429 7.66887 17.9611 9.62191C17.6883 9.56422 14.9526 9.00934 12.1993 9.35559C11.9746 8.80711 11.7626 8.32461 11.4721 7.73004C14.5315 6.48094 15.9181 4.7034 16.0926 4.46742ZM15.1727 3.51055C15.0239 3.72254 13.7783 5.39672 10.8359 6.49957C9.48 4.00832 7.97715 1.96176 7.74844 1.65551C10.3725 1.02297 13.1377 1.70512 15.1727 3.51055ZM6.16957 2.21172C6.38773 2.5109 7.86637 4.56 9.23742 6.99723C5.36684 8.02508 1.95773 8.01027 1.58766 8.00539C2.12422 5.4377 3.85461 3.30363 6.16957 2.21172ZM1.41289 9.70012C1.41289 9.61551 1.41457 9.53129 1.41711 9.44727C1.77914 9.45469 5.78898 9.50637 9.92125 8.26969C10.1581 8.73328 10.3844 9.20387 10.5921 9.67395C7.59996 10.5167 4.88141 12.9367 3.54012 15.2328C2.21852 13.7658 1.41289 11.8254 1.41289 9.70012ZM4.60848 16.228C5.47281 14.4611 7.81855 12.1802 11.1545 11.0422C12.3162 14.0611 12.7967 16.5911 12.9197 17.3171C10.2591 18.4504 7.05977 18.1395 4.60848 16.228ZM14.3108 16.5596C14.226 16.0562 13.7856 13.6339 12.7033 10.6598C15.2963 10.2448 17.5744 10.9242 17.8575 11.0136C17.4887 13.3159 16.1671 15.3043 14.3108 16.5596Z" />
	</symbol>
	<symbol id="instagram" viewBox="0 0 38 38">
		<rect width="38" height="38" rx="5" fill="#EFEEF3" />
		<path d="M19.0078 13.8739C16.1685 13.8739 13.8783 16.1641 13.8783 19.0033C13.8783 21.8426 16.1685 24.1328 19.0078 24.1328C21.8471 24.1328 24.1373 21.8426 24.1373 19.0033C24.1373 16.1641 21.8471 13.8739 19.0078 13.8739ZM19.0078 22.3382C17.173 22.3382 15.673 20.8426 15.673 19.0033C15.673 17.1641 17.1685 15.6685 19.0078 15.6685C20.8471 15.6685 22.3426 17.1641 22.3426 19.0033C22.3426 20.8426 20.8426 22.3382 19.0078 22.3382ZM25.5435 13.6641C25.5435 14.3292 25.0078 14.8605 24.3471 14.8605C23.6819 14.8605 23.1506 14.3248 23.1506 13.6641C23.1506 13.0033 23.6864 12.4676 24.3471 12.4676C25.0078 12.4676 25.5435 13.0033 25.5435 13.6641ZM28.9408 14.8783C28.8649 13.2757 28.4989 11.856 27.3247 10.6864C26.1551 9.51674 24.7355 9.15067 23.1328 9.07031C21.481 8.97656 16.5301 8.97656 14.8783 9.07031C13.2801 9.14621 11.8605 9.51228 10.6864 10.6819C9.51228 11.8516 9.15067 13.2712 9.07031 14.8739C8.97656 16.5257 8.97656 21.4766 9.07031 23.1283C9.14621 24.731 9.51228 26.1507 10.6864 27.3203C11.8605 28.49 13.2757 28.856 14.8783 28.9364C16.5301 29.0301 21.481 29.0301 23.1328 28.9364C24.7355 28.8605 26.1551 28.4944 27.3247 27.3203C28.4944 26.1507 28.8605 24.731 28.9408 23.1283C29.0346 21.4766 29.0346 16.5301 28.9408 14.8783ZM26.8069 24.9007C26.4587 25.7757 25.7846 26.4498 24.9051 26.8025C23.5881 27.3248 20.4632 27.2042 19.0078 27.2042C17.5524 27.2042 14.423 27.3203 13.1105 26.8025C12.2355 26.4542 11.5614 25.7801 11.2087 24.9007C10.6864 23.5837 10.8069 20.4587 10.8069 19.0033C10.8069 17.548 10.6908 14.4185 11.2087 13.106C11.5569 12.231 12.231 11.5569 13.1105 11.2042C14.4274 10.6819 17.5524 10.8025 19.0078 10.8025C20.4632 10.8025 23.5926 10.6864 24.9051 11.2042C25.7801 11.5525 26.4542 12.2266 26.8069 13.106C27.3292 14.423 27.2087 17.548 27.2087 19.0033C27.2087 20.4587 27.3292 23.5882 26.8069 24.9007Z" fill="#0D0D0D" />
	</symbol>
	<symbol id="logo" viewBox="0 0 33 32" class="social-icon">
		<rect width="33" height="32" fill="blue" />
		<g clip-path="url(#clip0_0_1)">
			<rect width="1440" height="934" transform="translate(-135 -24)" fill="#fff"/>
			<mask id="path-1-outside-1_0_1" maskUnits="userSpaceOnUse" x="0.0638428" y="0" width="32" height="32" fill="black">
				<rect fill="red" x="0.0638428" width="32" height="32" />
				<path d="M31.0638 8.78711C31.0638 4.49329 27.5798 1 23.2975 1C20.0757 1 17.2106 3.02039 16.0639 5.953C14.9171 3.02039 12.0518 1 8.83015 1C4.54788 1 1.06384 4.49329 1.06384 8.78711C1.06384 12.0134 3.00546 14.8292 5.91059 16C3.00546 17.1708 1.06384 19.9866 1.06384 23.2129C1.06384 27.5067 4.54788 31 8.83015 31C12.0518 31 14.9171 28.9796 16.0639 26.047C17.2106 28.9796 20.0757 31 23.2975 31C27.5798 31 31.0638 27.5067 31.0638 23.2129C31.0638 19.9866 29.1222 17.1708 26.2171 16C29.1222 14.8292 31.0638 12.0134 31.0638 8.78711ZM24.8904 15.6349C24.7211 15.6741 24.6011 15.8257 24.6011 16C24.6011 16.1743 24.7211 16.3259 24.8904 16.3651C28.0848 17.1096 30.3158 19.9254 30.3158 23.2129C30.3158 27.0933 27.1674 30.25 23.2975 30.25C19.9947 30.25 17.1063 27.9004 16.4299 24.6635C16.3937 24.4899 16.2409 24.3654 16.0639 24.3654C15.887 24.3654 15.7341 24.4899 15.698 24.6635C15.0214 27.9004 12.133 30.25 8.83015 30.25C4.96024 30.25 1.81186 27.0933 1.81186 23.2129C1.81186 19.9254 4.04293 17.1096 7.23733 16.3651C7.40662 16.3259 7.5266 16.1743 7.5266 16C7.5266 15.8257 7.40662 15.6741 7.23733 15.6349C4.04293 14.8904 1.81186 12.0746 1.81186 8.78711C1.81186 4.90674 4.96024 1.75 8.83015 1.75C12.133 1.75 15.0214 4.09961 15.698 7.33655C15.7341 7.51013 15.887 7.63464 16.0639 7.63464C16.2409 7.63464 16.3937 7.51013 16.4299 7.33655C17.1063 4.09961 19.9947 1.75 23.2975 1.75C27.1674 1.75 30.3158 4.90674 30.3158 8.78711C30.3158 12.0746 28.0848 14.8904 24.8904 15.6349Z" />
			</mask>
			<path d="M31.0638 8.78711C31.0638 4.49329 27.5798 1 23.2975 1C20.0757 1 17.2106 3.02039 16.0639 5.953C14.9171 3.02039 12.0518 1 8.83015 1C4.54788 1 1.06384 4.49329 1.06384 8.78711C1.06384 12.0134 3.00546 14.8292 5.91059 16C3.00546 17.1708 1.06384 19.9866 1.06384 23.2129C1.06384 27.5067 4.54788 31 8.83015 31C12.0518 31 14.9171 28.9796 16.0639 26.047C17.2106 28.9796 20.0757 31 23.2975 31C27.5798 31 31.0638 27.5067 31.0638 23.2129C31.0638 19.9866 29.1222 17.1708 26.2171 16C29.1222 14.8292 31.0638 12.0134 31.0638 8.78711ZM24.8904 15.6349C24.7211 15.6741 24.6011 15.8257 24.6011 16C24.6011 16.1743 24.7211 16.3259 24.8904 16.3651C28.0848 17.1096 30.3158 19.9254 30.3158 23.2129C30.3158 27.0933 27.1674 30.25 23.2975 30.25C19.9947 30.25 17.1063 27.9004 16.4299 24.6635C16.3937 24.4899 16.2409 24.3654 16.0639 24.3654C15.887 24.3654 15.7341 24.4899 15.698 24.6635C15.0214 27.9004 12.133 30.25 8.83015 30.25C4.96024 30.25 1.81186 27.0933 1.81186 23.2129C1.81186 19.9254 4.04293 17.1096 7.23733 16.3651C7.40662 16.3259 7.5266 16.1743 7.5266 16C7.5266 15.8257 7.40662 15.6741 7.23733 15.6349C4.04293 14.8904 1.81186 12.0746 1.81186 8.78711C1.81186 4.90674 4.96024 1.75 8.83015 1.75C12.133 1.75 15.0214 4.09961 15.698 7.33655C15.7341 7.51013 15.887 7.63464 16.0639 7.63464C16.2409 7.63464 16.3937 7.51013 16.4299 7.33655C17.1063 4.09961 19.9947 1.75 23.2975 1.75C27.1674 1.75 30.3158 4.90674 30.3158 8.78711C30.3158 12.0746 28.0848 14.8904 24.8904 15.6349Z" fill="red" />
			<path d="M31.0638 8.78711C31.0638 4.49329 27.5798 1 23.2975 1C20.0757 1 17.2106 3.02039 16.0639 5.953C14.9171 3.02039 12.0518 1 8.83015 1C4.54788 1 1.06384 4.49329 1.06384 8.78711C1.06384 12.0134 3.00546 14.8292 5.91059 16C3.00546 17.1708 1.06384 19.9866 1.06384 23.2129C1.06384 27.5067 4.54788 31 8.83015 31C12.0518 31 14.9171 28.9796 16.0639 26.047C17.2106 28.9796 20.0757 31 23.2975 31C27.5798 31 31.0638 27.5067 31.0638 23.2129C31.0638 19.9866 29.1222 17.1708 26.2171 16C29.1222 14.8292 31.0638 12.0134 31.0638 8.78711ZM24.8904 15.6349C24.7211 15.6741 24.6011 15.8257 24.6011 16C24.6011 16.1743 24.7211 16.3259 24.8904 16.3651C28.0848 17.1096 30.3158 19.9254 30.3158 23.2129C30.3158 27.0933 27.1674 30.25 23.2975 30.25C19.9947 30.25 17.1063 27.9004 16.4299 24.6635C16.3937 24.4899 16.2409 24.3654 16.0639 24.3654C15.887 24.3654 15.7341 24.4899 15.698 24.6635C15.0214 27.9004 12.133 30.25 8.83015 30.25C4.96024 30.25 1.81186 27.0933 1.81186 23.2129C1.81186 19.9254 4.04293 17.1096 7.23733 16.3651C7.40662 16.3259 7.5266 16.1743 7.5266 16C7.5266 15.8257 7.40662 15.6741 7.23733 15.6349C4.04293 14.8904 1.81186 12.0746 1.81186 8.78711C1.81186 4.90674 4.96024 1.75 8.83015 1.75C12.133 1.75 15.0214 4.09961 15.698 7.33655C15.7341 7.51013 15.887 7.63464 16.0639 7.63464C16.2409 7.63464 16.3937 7.51013 16.4299 7.33655C17.1063 4.09961 19.9947 1.75 23.2975 1.75C27.1674 1.75 30.3158 4.90674 30.3158 8.78711C30.3158 12.0746 28.0848 14.8904 24.8904 15.6349Z" stroke="red" stroke-width="2" mask="url(#path-1-outside-1_0_1)" />
		</g>
		<defs>
			<clipPath id="clip0_0_1">
				<rect width="1440" height="934" fill="red" transform="translate(-135 -24)" />
			</clipPath>
		</defs>
	</symbol>
</svg>
